<svg xmlns="http://www.w3.org/2000/svg" xmlns:xlink="http://www.w3.org/1999/xlink" viewBox="0,0,256,256" width="240px" height="240px" fill-rule="nonzero"><g fill="none" fill-rule="nonzero" stroke="none" stroke-width="1" stroke-linecap="butt" stroke-linejoin="miter" stroke-miterlimit="10" stroke-dasharray="" stroke-dashoffset="0" font-family="none" font-weight="none" font-size="none" text-anchor="none" style="mix-blend-mode: normal"><g transform="scale(5.33333,5.33333)"><path d="M40,12h-18l-4,-4h-10c-2.2,0 -4,1.8 -4,4v8h40v-4c0,-2.2 -1.8,-4 -4,-4z" fill="#ffa000"></path><path d="M40,12h-32c-2.2,0 -4,1.8 -4,4v20c0,2.2 1.8,4 4,4h32c2.2,0 4,-1.8 4,-4v-20c0,-2.2 -1.8,-4 -4,-4z" fill="#ffca28"></path></g></g><g fill="#ae1313" fill-rule="nonzero" stroke="none" stroke-width="1" stroke-linecap="butt" stroke-linejoin="miter" stroke-miterlimit="10" stroke-dasharray="" stroke-dashoffset="0" font-family="none" font-weight="none" font-size="none" text-anchor="none" style="mix-blend-mode: normal"><g><path d="M53.565,100.625v3.8h-6.97v18.95h-4.69v-18.95h-6.87v-3.8zM74.485,111.505v1.01c0,2.24 -0.39667,4.20333 -1.19,5.89c-0.79333,1.68667 -1.92667,2.99 -3.4,3.91c-1.47333,0.91333 -3.16333,1.37 -5.07,1.37v0c-1.88667,0 -3.56667,-0.45333 -5.04,-1.36c-1.48,-0.90667 -2.62667,-2.2 -3.44,-3.88c-0.81333,-1.68 -1.22667,-3.61333 -1.24,-5.8v0v-1.13c0,-2.24 0.40333,-4.21 1.21,-5.91c0.81333,-1.70667 1.95667,-3.01667 3.43,-3.93c1.47333,-0.90667 3.15667,-1.36 5.05,-1.36c1.89333,0 3.58,0.45333 5.06,1.36c1.47333,0.91333 2.61333,2.22333 3.42,3.93c0.80667,1.7 1.21,3.66667 1.21,5.9zM69.735,112.595v-1.11c0,-2.38667 -0.42667,-4.2 -1.28,-5.44c-0.85333,-1.24 -2.07333,-1.86 -3.66,-1.86v0c-1.57333,0 -2.78667,0.61333 -3.64,1.84c-0.85333,1.22 -1.28667,3.01333 -1.3,5.38v0v1.11c0,2.32667 0.42667,4.13 1.28,5.41c0.86,1.28 2.09,1.92 3.69,1.92v0c1.57333,0 2.78333,-0.61667 3.63,-1.85c0.84,-1.23333 1.26667,-3.03333 1.28,-5.4zM86.685,115.355h-4.11v8.02h-4.69v-22.75h8.88c1.70667,0 3.21,0.31333 4.51,0.94c1.29333,0.62667 2.29,1.51333 2.99,2.66c0.7,1.15333 1.05,2.46333 1.05,3.93v0c0,2.23333 -0.76333,3.99 -2.29,5.27c-1.52667,1.28667 -3.64,1.93 -6.34,1.93zM82.575,104.425v7.14h4.19c1.24,0 2.18667,-0.29333 2.84,-0.88c0.64667,-0.58 0.97,-1.41333 0.97,-2.5v0c0,-1.11333 -0.32667,-2.01333 -0.98,-2.7c-0.66,-0.68667 -1.56667,-1.04 -2.72,-1.06v0zM118.295,117.405v0c0,-0.88667 -0.31333,-1.56667 -0.94,-2.04c-0.62,-0.47333 -1.74333,-0.97333 -3.37,-1.5c-1.62667,-0.52667 -2.91333,-1.04333 -3.86,-1.55v0c-2.58667,-1.4 -3.88,-3.28 -3.88,-5.64v0c0,-1.23333 0.34667,-2.33 1.04,-3.29c0.69333,-0.96667 1.69,-1.72 2.99,-2.26c1.29333,-0.54 2.74667,-0.81 4.36,-0.81v0c1.62667,0 3.07667,0.29333 4.35,0.88c1.26667,0.58667 2.25333,1.41667 2.96,2.49c0.7,1.07333 1.05,2.29333 1.05,3.66v0h-4.68c0,-1.04 -0.33,-1.85 -0.99,-2.43c-0.65333,-0.58 -1.57333,-0.87 -2.76,-0.87v0c-1.14667,0 -2.04,0.24333 -2.68,0.73c-0.63333,0.48667 -0.95,1.12333 -0.95,1.91v0c0,0.74 0.37333,1.36 1.12,1.86c0.74667,0.5 1.84333,0.97 3.29,1.41v0c2.66667,0.8 4.61,1.79333 5.83,2.98c1.21333,1.18667 1.82,2.66667 1.82,4.44v0c0,1.96667 -0.74333,3.51 -2.23,4.63c-1.48667,1.12 -3.49333,1.68 -6.02,1.68v0c-1.74667,0 -3.34,-0.32 -4.78,-0.96c-1.43333,-0.64 -2.53,-1.51667 -3.29,-2.63c-0.75333,-1.11333 -1.13,-2.40667 -1.13,-3.88v0h4.7c0,2.51333 1.5,3.77 4.5,3.77v0c1.12,0 1.99,-0.22667 2.61,-0.68c0.62667,-0.45333 0.94,-1.08667 0.94,-1.9zM139.855,109.845v3.67h-9v6.09h10.57v3.77h-15.25v-22.75h15.21v3.8h-10.53v5.42zM157.345,115.795h4.69c-0.18,2.44667 -1.08667,4.37333 -2.72,5.78c-1.62667,1.40667 -3.77333,2.11 -6.44,2.11v0c-2.92,0 -5.21333,-0.98 -6.88,-2.94c-1.67333,-1.96667 -2.51,-4.66333 -2.51,-8.09v0v-1.39c0,-2.18667 0.38333,-4.11333 1.15,-5.78c0.77333,-1.66667 1.87667,-2.94667 3.31,-3.84c1.43333,-0.88667 3.09667,-1.33 4.99,-1.33v0c2.62667,0 4.74333,0.70333 6.35,2.11c1.6,1.40667 2.52667,3.38 2.78,5.92v0h-4.69c-0.11333,-1.46667 -0.52333,-2.53333 -1.23,-3.2c-0.7,-0.66 -1.77,-0.99 -3.21,-0.99v0c-1.56,0 -2.73,0.56 -3.51,1.68c-0.77333,1.12 -1.17,2.85667 -1.19,5.21v0v1.72c0,2.46 0.37333,4.25667 1.12,5.39c0.74,1.13333 1.91333,1.7 3.52,1.7v0c1.44667,0 2.52667,-0.33 3.24,-0.99c0.71333,-0.66 1.12333,-1.68333 1.23,-3.07zM177.795,123.375l-4.26,-8.33h-3.74v8.33h-4.69v-22.75h8.46c2.68667,0 4.76,0.6 6.22,1.8c1.45333,1.19333 2.18,2.88667 2.18,5.08v0c0,1.54667 -0.33667,2.84 -1.01,3.88c-0.66667,1.03333 -1.68333,1.85667 -3.05,2.47v0l4.92,9.3v0.22zM169.795,104.425v6.83h3.78c1.18,0 2.09333,-0.3 2.74,-0.9c0.64667,-0.6 0.97,-1.42667 0.97,-2.48v0c0,-1.07333 -0.30667,-1.91667 -0.92,-2.53c-0.60667,-0.61333 -1.54,-0.92 -2.8,-0.92v0zM199.215,109.845v3.67h-9v6.09h10.57v3.77h-15.25v-22.75h15.21v3.8h-10.53v5.42zM220.965,100.625v3.8h-6.97v18.95h-4.68v-18.95h-6.88v-3.8z"></path></g></g></svg>