<svg xmlns="http://www.w3.org/2000/svg" xmlns:xlink="http://www.w3.org/1999/xlink" viewBox="0,0,256,256" width="240px" height="240px" fill-rule="nonzero"><g fill="none" fill-rule="nonzero" stroke="none" stroke-width="1" stroke-linecap="butt" stroke-linejoin="miter" stroke-miterlimit="10" stroke-dasharray="" stroke-dashoffset="0" font-family="none" font-weight="none" font-size="none" text-anchor="none" style="mix-blend-mode: normal"><g transform="scale(5.33333,5.33333)"><path d="M40,12h-18l-4,-4h-10c-2.2,0 -4,1.8 -4,4v8h40v-4c0,-2.2 -1.8,-4 -4,-4z" fill="#ffa000"></path><path d="M40,12h-32c-2.2,0 -4,1.8 -4,4v20c0,2.2 1.8,4 4,4h32c2.2,0 4,-1.8 4,-4v-20c0,-2.2 -1.8,-4 -4,-4z" fill="#ffca28"></path></g></g><g fill="none" fill-rule="nonzero" stroke="none" stroke-width="1" stroke-linecap="butt" stroke-linejoin="miter" stroke-miterlimit="10" stroke-dasharray="" stroke-dashoffset="0" font-family="none" font-weight="none" font-size="none" text-anchor="none" style="mix-blend-mode: normal"><g transform="translate(74.66964,88.89166) scale(3.55536,3.55536)" id="overlay"><path d="M21.28,17.41l2.37,9.84l-8.65,-5.43l-8.65,5.43l0.72,-3l0.48,-2l1.17,-4.84l-7.72,-6.85l10.23,-0.94l3.77,-9.37l3,7.46l0.77,1.91l1.23,0.11l9,0.83z" fill="#f9e3ae"></path><path d="M21.28,17.41l2.37,9.84l-8.65,-5.43v-21.57l3,7.46l0.77,1.91l1.23,0.11l9,0.83z" fill="#f6d397"></path><path d="M23.652,28c-0.17,0 -0.341,-0.043 -0.494,-0.131l-8.158,-4.639l-8.158,4.639c-0.343,0.195 -0.77,0.17 -1.088,-0.064c-0.318,-0.235 -0.468,-0.635 -0.383,-1.021l1.991,-8.976l-7.02,-6.124c-0.301,-0.262 -0.417,-0.678 -0.295,-1.058c0.121,-0.38 0.457,-0.651 0.854,-0.69l9.387,-0.928l3.801,-8.419c0.161,-0.359 0.517,-0.589 0.911,-0.589c0.394,0 0.75,0.23 0.911,0.588l3.801,8.419l9.387,0.928c0.396,0.039 0.732,0.311 0.854,0.69c0.122,0.38 0.006,0.796 -0.295,1.058l-7.02,6.124l1.991,8.976c0.085,0.386 -0.064,0.786 -0.383,1.021c-0.176,0.13 -0.384,0.196 -0.594,0.196zM15,21.08c0.171,0 0.341,0.043 0.494,0.131l6.694,3.807l-1.632,-7.356c-0.079,-0.357 0.043,-0.729 0.319,-0.97l5.723,-4.993l-7.659,-0.757c-0.355,-0.035 -0.666,-0.258 -0.813,-0.583l-3.126,-6.928l-3.127,6.927c-0.146,0.326 -0.457,0.548 -0.813,0.583l-7.659,0.757l5.723,4.993c0.276,0.24 0.398,0.613 0.319,0.97l-1.632,7.356l6.694,-3.807c0.154,-0.087 0.324,-0.13 0.495,-0.13z" fill="#8d6c9f"></path></g></g></svg>